<?xml version="1.0" encoding="UTF-8" standalone="no"?>
<!DOCTYPE svg PUBLIC "-//W3C//DTD SVG 1.1//EN"
 "http://www.w3.org/Graphics/SVG/1.1/DTD/svg11.dtd">
<!-- Generated by graphviz version 2.28.0 (20111211.2114)
 -->
<!-- Title: tcpdump_graph_ip4 Pages: 1 -->
<svg width="1776pt" height="1683pt"
 viewBox="0.00 0.00 1775.95 1683.41" xmlns="http://www.w3.org/2000/svg" xmlns:xlink="http://www.w3.org/1999/xlink">
<g id="graph1" class="graph" transform="scale(1 1) rotate(0) translate(4 1679.41)">
<title>tcpdump_graph_ip4</title>
<polygon fill="white" stroke="white" points="-4,5 -4,-1679.41 1772.95,-1679.41 1772.95,5 -4,5"/>
<!-- 10.0.0.50 -->
<g id="node1" class="node"><title>10.0.0.50</title>
<ellipse fill="none" stroke="black" cx="1116.87" cy="-127.834" rx="44.2946" ry="18"/>
<text text-anchor="middle" x="1116.87" y="-124.134" font-family="Times,serif" font-size="14.00">10.0.0.50</text>
</g>
<!-- 10.0.0.255 -->
<g id="node3" class="node"><title>10.0.0.255</title>
<ellipse fill="none" stroke="black" cx="1167.03" cy="-18" rx="48.6179" ry="18"/>
<text text-anchor="middle" x="1167.03" y="-14.3" font-family="Times,serif" font-size="14.00">10.0.0.255</text>
</g>
<!-- 10.0.0.50&#45;&gt;10.0.0.255 -->
<g id="edge2" class="edge"><title>10.0.0.50&#45;&gt;10.0.0.255</title>
<path fill="none" stroke="black" d="M1125.15,-109.697C1133.19,-92.1038 1145.48,-65.1897 1154.67,-45.0636"/>
<polygon fill="black" stroke="black" points="1157.93,-46.3497 1158.9,-35.7994 1151.56,-43.4417 1157.93,-46.3497"/>
</g>
<!-- 192.168.0.57 -->
<g id="node5" class="node"><title>192.168.0.57</title>
<ellipse fill="none" stroke="black" cx="1296.02" cy="-242.97" rx="57.2688" ry="18"/>
<text text-anchor="middle" x="1296.02" y="-239.27" font-family="Times,serif" font-size="14.00">192.168.0.57</text>
</g>
<!-- 10.0.0.50&#45;&gt;192.168.0.57 -->
<g id="edge4" class="edge"><title>10.0.0.50&#45;&gt;192.168.0.57</title>
<path fill="none" stroke="black" d="M1140.66,-143.123C1171.81,-163.142 1226.61,-198.363 1262.11,-221.173"/>
<polygon fill="black" stroke="black" points="1260.38,-224.226 1270.69,-226.688 1264.17,-218.337 1260.38,-224.226"/>
</g>
<!-- 224.0.0.251 -->
<g id="node7" class="node"><title>224.0.0.251</title>
<ellipse fill="none" stroke="black" cx="912.533" cy="-1549.02" rx="52.9443" ry="18"/>
<text text-anchor="middle" x="912.533" y="-1545.32" font-family="Times,serif" font-size="14.00">224.0.0.251</text>
</g>
<!-- 10.0.0.50&#45;&gt;224.0.0.251 -->
<g id="edge6" class="edge"><title>10.0.0.50&#45;&gt;224.0.0.251</title>
<path fill="none" stroke="black" d="M1114.25,-146.062C1092.57,-296.809 943.121,-1336.27 916.564,-1520.98"/>
<polygon fill="black" stroke="black" points="913.084,-1520.59 915.125,-1530.99 920.013,-1521.59 913.084,-1520.59"/>
</g>
<!-- 239.255.255.250 -->
<g id="node9" class="node"><title>239.255.255.250</title>
<ellipse fill="none" stroke="black" cx="912.533" cy="-67.8358" rx="70.2668" ry="18"/>
<text text-anchor="middle" x="912.533" y="-64.1358" font-family="Times,serif" font-size="14.00">239.255.255.250</text>
</g>
<!-- 10.0.0.50&#45;&gt;239.255.255.250 -->
<g id="edge8" class="edge"><title>10.0.0.50&#45;&gt;239.255.255.250</title>
<path fill="none" stroke="black" d="M1080.81,-117.246C1049.81,-108.144 1004.58,-94.8637 968.819,-84.3631"/>
<polygon fill="black" stroke="black" points="969.585,-80.94 959.004,-81.4808 967.612,-87.6565 969.585,-80.94"/>
</g>
<!-- 192.168.0.57&#45;&gt;224.0.0.251 -->
<g id="edge116" class="edge"><title>192.168.0.57&#45;&gt;224.0.0.251</title>
<path fill="none" stroke="black" d="M1290.75,-260.936C1249,-403.103 972.273,-1345.56 920.775,-1520.95"/>
<polygon fill="black" stroke="black" points="917.364,-1520.14 917.904,-1530.72 924.08,-1522.12 917.364,-1520.14"/>
</g>
<!-- 192.168.0.57&#45;&gt;239.255.255.250 -->
<g id="edge118" class="edge"><title>192.168.0.57&#45;&gt;239.255.255.250</title>
<path fill="none" stroke="black" d="M1263.33,-228.038C1194.45,-196.585 1034.4,-123.493 956.589,-87.9555"/>
<polygon fill="black" stroke="black" points="957.619,-84.5785 947.069,-83.608 954.712,-90.946 957.619,-84.5785"/>
</g>
<!-- 192.168.0.20 -->
<g id="node12" class="node"><title>192.168.0.20</title>
<ellipse fill="none" stroke="black" cx="1435.48" cy="-403.916" rx="57.2688" ry="18"/>
<text text-anchor="middle" x="1435.48" y="-400.216" font-family="Times,serif" font-size="14.00">192.168.0.20</text>
</g>
<!-- 192.168.0.57&#45;&gt;192.168.0.20 -->
<g id="edge110" class="edge"><title>192.168.0.57&#45;&gt;192.168.0.20</title>
<path fill="none" stroke="black" d="M1306.01,-260.827C1327.06,-289.772 1375.88,-346.679 1407.26,-379.381"/>
<polygon fill="black" stroke="black" points="1404.96,-382.037 1414.45,-386.753 1409.97,-377.15 1404.96,-382.037"/>
</g>
<!-- 192.168.0.255 -->
<g id="node17" class="node"><title>192.168.0.255</title>
<ellipse fill="none" stroke="black" cx="316.08" cy="-242.97" rx="61.6163" ry="18"/>
<text text-anchor="middle" x="316.08" y="-239.27" font-family="Times,serif" font-size="14.00">192.168.0.255</text>
</g>
<!-- 192.168.0.57&#45;&gt;192.168.0.255 -->
<g id="edge112" class="edge"><title>192.168.0.57&#45;&gt;192.168.0.255</title>
<path fill="none" stroke="black" d="M1238.38,-242.97C1069.27,-242.97 574.647,-242.97 388.261,-242.97"/>
<polygon fill="black" stroke="black" points="388.025,-239.47 378.025,-242.97 388.025,-246.47 388.025,-239.47"/>
</g>
<!-- 224.0.0.22 -->
<g id="node19" class="node"><title>224.0.0.22</title>
<ellipse fill="none" stroke="black" cx="1523.95" cy="-1019.22" rx="48.6179" ry="18"/>
<text text-anchor="middle" x="1523.95" y="-1015.52" font-family="Times,serif" font-size="14.00">224.0.0.22</text>
</g>
<!-- 192.168.0.57&#45;&gt;224.0.0.22 -->
<g id="edge114" class="edge"><title>192.168.0.57&#45;&gt;224.0.0.22</title>
<path fill="none" stroke="black" d="M1301.32,-261.015C1331.26,-362.985 1479.22,-866.887 1515.78,-991.376"/>
<polygon fill="black" stroke="black" points="1512.51,-992.666 1518.68,-1001.28 1519.22,-990.694 1512.51,-992.666"/>
</g>
<!-- 255.255.255.255 -->
<g id="node54" class="node"><title>255.255.255.255</title>
<ellipse fill="none" stroke="black" cx="1523.95" cy="-597.633" rx="70.2668" ry="18"/>
<text text-anchor="middle" x="1523.95" y="-593.933" font-family="Times,serif" font-size="14.00">255.255.255.255</text>
</g>
<!-- 192.168.0.57&#45;&gt;255.255.255.255 -->
<g id="edge120" class="edge"><title>192.168.0.57&#45;&gt;255.255.255.255</title>
<path fill="none" stroke="black" d="M1307.64,-261.045C1345.06,-319.271 1462.58,-502.137 1506.85,-571.026"/>
<polygon fill="black" stroke="black" points="1504.01,-573.074 1512.36,-579.594 1509.9,-569.289 1504.01,-573.074"/>
</g>
<!-- 108.160.162.49 -->
<g id="node10" class="node"><title>108.160.162.49</title>
<ellipse fill="none" stroke="black" cx="1549.35" cy="-325.327" rx="65.9423" ry="18"/>
<text text-anchor="middle" x="1549.35" y="-321.627" font-family="Times,serif" font-size="14.00">108.160.162.49</text>
</g>
<!-- 108.160.162.49&#45;&gt;192.168.0.20 -->
<g id="edge10" class="edge"><title>108.160.162.49&#45;&gt;192.168.0.20</title>
<path fill="none" stroke="black" d="M1524.93,-342.187C1508.3,-353.659 1486.12,-368.969 1468,-381.471"/>
<polygon fill="black" stroke="black" points="1465.72,-378.794 1459.48,-387.354 1469.7,-384.555 1465.72,-378.794"/>
</g>
<!-- 192.168.0.20&#45;&gt;192.168.0.57 -->
<g id="edge60" class="edge"><title>192.168.0.20&#45;&gt;192.168.0.57</title>
<path fill="none" stroke="black" d="M1425.5,-386.059C1404.45,-357.114 1355.63,-300.207 1324.25,-267.505"/>
<polygon fill="black" stroke="black" points="1326.55,-264.849 1317.06,-260.133 1321.53,-269.736 1326.55,-264.849"/>
</g>
<!-- 192.168.0.20&#45;&gt;239.255.255.250 -->
<g id="edge68" class="edge"><title>192.168.0.20&#45;&gt;239.255.255.250</title>
<path fill="none" stroke="black" d="M1410.26,-387.706C1324.79,-332.777 1045.97,-153.594 947.426,-90.2602"/>
<polygon fill="black" stroke="black" points="949.039,-87.1368 938.735,-84.6747 945.255,-93.0255 949.039,-87.1368"/>
</g>
<!-- 192.168.0.20&#45;&gt;192.168.0.255 -->
<g id="edge58" class="edge"><title>192.168.0.20&#45;&gt;192.168.0.255</title>
<path fill="none" stroke="black" d="M1382.99,-396.369C1199.14,-369.934 584.404,-281.549 381.608,-252.391"/>
<polygon fill="black" stroke="black" points="381.804,-248.884 371.408,-250.925 380.808,-255.812 381.804,-248.884"/>
</g>
<!-- 192.168.0.20&#45;&gt;224.0.0.22 -->
<g id="edge62" class="edge"><title>192.168.0.20&#45;&gt;224.0.0.22</title>
<path fill="none" stroke="black" d="M1438.08,-421.998C1450.6,-509.031 1504.65,-884.953 1519.92,-991.172"/>
<polygon fill="black" stroke="black" points="1516.46,-991.739 1521.35,-1001.14 1523.39,-990.742 1516.46,-991.739"/>
</g>
<!-- 224.0.0.252 -->
<g id="node21" class="node"><title>224.0.0.252</title>
<ellipse fill="none" stroke="black" cx="88.1525" cy="-1019.22" rx="52.9443" ry="18"/>
<text text-anchor="middle" x="88.1525" y="-1015.52" font-family="Times,serif" font-size="14.00">224.0.0.252</text>
</g>
<!-- 192.168.0.20&#45;&gt;224.0.0.252 -->
<g id="edge64" class="edge"><title>192.168.0.20&#45;&gt;224.0.0.252</title>
<path fill="none" stroke="black" d="M1402.85,-418.821C1220.77,-501.971 331.504,-908.087 129.172,-1000.49"/>
<polygon fill="black" stroke="black" points="127.704,-997.311 120.061,-1004.65 130.612,-1003.68 127.704,-997.311"/>
</g>
<!-- 239.203.13.64 -->
<g id="node51" class="node"><title>239.203.13.64</title>
<ellipse fill="none" stroke="black" cx="1422.42" cy="-171.268" rx="61.6163" ry="18"/>
<text text-anchor="middle" x="1422.42" y="-167.568" font-family="Times,serif" font-size="14.00">239.203.13.64</text>
</g>
<!-- 192.168.0.20&#45;&gt;239.203.13.64 -->
<g id="edge66" class="edge"><title>192.168.0.20&#45;&gt;239.203.13.64</title>
<path fill="none" stroke="black" d="M1434.46,-385.66C1432.19,-345.228 1426.72,-247.892 1424.01,-199.526"/>
<polygon fill="black" stroke="black" points="1427.5,-199.227 1423.44,-189.439 1420.51,-199.619 1427.5,-199.227"/>
</g>
<!-- 192.168.0.20&#45;&gt;255.255.255.255 -->
<g id="edge70" class="edge"><title>192.168.0.20&#45;&gt;255.255.255.255</title>
<path fill="none" stroke="black" d="M1443.65,-421.793C1459.18,-455.799 1493.06,-529.996 1511.46,-570.285"/>
<polygon fill="black" stroke="black" points="1508.34,-571.875 1515.68,-579.517 1514.71,-568.967 1508.34,-571.875"/>
</g>
<!-- 108.160.163.47 -->
<g id="node13" class="node"><title>108.160.163.47</title>
<ellipse fill="none" stroke="black" cx="1640.15" cy="-508.157" rx="65.9423" ry="18"/>
<text text-anchor="middle" x="1640.15" y="-504.457" font-family="Times,serif" font-size="14.00">108.160.163.47</text>
</g>
<!-- 108.160.163.47&#45;&gt;192.168.0.20 -->
<g id="edge12" class="edge"><title>108.160.163.47&#45;&gt;192.168.0.20</title>
<path fill="none" stroke="black" d="M1608.62,-492.098C1572.6,-473.752 1513.62,-443.713 1474.67,-423.876"/>
<polygon fill="black" stroke="black" points="1476.21,-420.733 1465.71,-419.313 1473.04,-426.971 1476.21,-420.733"/>
</g>
<!-- 192.168.0.100 -->
<g id="node15" class="node"><title>192.168.0.100</title>
<ellipse fill="none" stroke="black" cx="699.571" cy="-67.8358" rx="61.6163" ry="18"/>
<text text-anchor="middle" x="699.571" y="-64.1358" font-family="Times,serif" font-size="14.00">192.168.0.100</text>
</g>
<!-- 192.168.0.100&#45;&gt;239.255.255.250 -->
<g id="edge20" class="edge"><title>192.168.0.100&#45;&gt;239.255.255.250</title>
<path fill="none" stroke="black" d="M761.454,-67.8358C783.385,-67.8358 808.395,-67.8358 831.67,-67.8358"/>
<polygon fill="black" stroke="black" points="831.873,-71.3359 841.873,-67.8358 831.873,-64.3359 831.873,-71.3359"/>
</g>
<!-- 192.168.0.100&#45;&gt;192.168.0.255 -->
<g id="edge14" class="edge"><title>192.168.0.100&#45;&gt;192.168.0.255</title>
<path fill="none" stroke="black" d="M666.21,-83.0715C596.57,-114.875 435.828,-188.283 358.778,-223.471"/>
<polygon fill="black" stroke="black" points="357.007,-220.432 349.364,-227.77 359.915,-226.799 357.007,-220.432"/>
</g>
<!-- 192.168.0.100&#45;&gt;224.0.0.22 -->
<g id="edge16" class="edge"><title>192.168.0.100&#45;&gt;224.0.0.22</title>
<path fill="none" stroke="black" d="M714.941,-85.574C815.873,-202.055 1383.38,-856.991 1502.15,-994.065"/>
<polygon fill="black" stroke="black" points="1499.82,-996.718 1509.01,-1001.98 1505.11,-992.134 1499.82,-996.718"/>
</g>
<!-- 192.168.0.100&#45;&gt;224.0.0.252 -->
<g id="edge18" class="edge"><title>192.168.0.100&#45;&gt;224.0.0.252</title>
<path fill="none" stroke="black" d="M688.171,-85.574C613.542,-201.699 194.986,-852.986 105.138,-992.791"/>
<polygon fill="black" stroke="black" points="101.936,-991.301 99.4736,-1001.61 107.824,-995.085 101.936,-991.301"/>
</g>
<!-- 192.168.0.10 -->
<g id="node23" class="node"><title>192.168.0.10</title>
<ellipse fill="none" stroke="black" cx="176.62" cy="-403.916" rx="57.2688" ry="18"/>
<text text-anchor="middle" x="176.62" y="-400.216" font-family="Times,serif" font-size="14.00">192.168.0.10</text>
</g>
<!-- 192.168.0.10&#45;&gt;239.255.255.250 -->
<g id="edge28" class="edge"><title>192.168.0.10&#45;&gt;239.255.255.250</title>
<path fill="none" stroke="black" d="M209.67,-388.822C328.48,-334.564 733.986,-149.376 868.658,-87.8728"/>
<polygon fill="black" stroke="black" points="870.236,-90.9998 877.879,-83.6619 867.328,-84.6324 870.236,-90.9998"/>
</g>
<!-- 192.168.0.10&#45;&gt;192.168.0.255 -->
<g id="edge24" class="edge"><title>192.168.0.10&#45;&gt;192.168.0.255</title>
<path fill="none" stroke="black" d="M191.81,-386.386C216.541,-357.845 265.605,-301.222 294.128,-268.305"/>
<polygon fill="black" stroke="black" points="297.006,-270.328 300.909,-260.479 291.715,-265.744 297.006,-270.328"/>
</g>
<!-- 192.168.0.10&#45;&gt;224.0.0.252 -->
<g id="edge26" class="edge"><title>192.168.0.10&#45;&gt;224.0.0.252</title>
<path fill="none" stroke="black" d="M174.02,-421.998C161.507,-509.031 107.457,-884.953 92.1854,-991.172"/>
<polygon fill="black" stroke="black" points="88.7113,-990.742 90.7524,-1001.14 95.64,-991.739 88.7113,-990.742"/>
</g>
<!-- 192.168.0.22 -->
<g id="node25" class="node"><title>192.168.0.22</title>
<ellipse fill="none" stroke="black" cx="1116.87" cy="-1489.02" rx="57.2688" ry="18"/>
<text text-anchor="middle" x="1116.87" y="-1485.32" font-family="Times,serif" font-size="14.00">192.168.0.22</text>
</g>
<!-- 192.168.0.10&#45;&gt;192.168.0.22 -->
<g id="edge22" class="edge"><title>192.168.0.10&#45;&gt;192.168.0.22</title>
<path fill="none" stroke="black" d="M191.77,-421.4C300.728,-547.144 964.247,-1312.89 1094.64,-1463.37"/>
<polygon fill="black" stroke="black" points="1092.26,-1465.97 1101.46,-1471.23 1097.55,-1461.38 1092.26,-1465.97"/>
</g>
<!-- 192.168.0.22&#45;&gt;224.0.0.251 -->
<g id="edge82" class="edge"><title>192.168.0.22&#45;&gt;224.0.0.251</title>
<path fill="none" stroke="black" d="M1074.53,-1501.45C1041.97,-1511.01 996.902,-1524.25 962.564,-1534.33"/>
<polygon fill="black" stroke="black" points="961.34,-1531.04 952.731,-1537.22 963.313,-1537.76 961.34,-1531.04"/>
</g>
<!-- 192.168.0.22&#45;&gt;239.255.255.250 -->
<g id="edge88" class="edge"><title>192.168.0.22&#45;&gt;239.255.255.250</title>
<path fill="none" stroke="black" d="M1114.25,-1470.79C1092.57,-1320.05 943.121,-280.581 916.564,-95.8722"/>
<polygon fill="black" stroke="black" points="920.013,-95.2652 915.125,-85.8651 913.084,-96.2615 920.013,-95.2652"/>
</g>
<!-- 192.168.0.22&#45;&gt;192.168.0.255 -->
<g id="edge78" class="edge"><title>192.168.0.22&#45;&gt;192.168.0.255</title>
<path fill="none" stroke="black" d="M1105.24,-1470.93C1015.95,-1331.99 439.824,-435.518 333.08,-269.422"/>
<polygon fill="black" stroke="black" points="335.887,-267.315 327.536,-260.795 329.998,-271.1 335.887,-267.315"/>
</g>
<!-- 192.168.0.22&#45;&gt;224.0.0.22 -->
<g id="edge80" class="edge"><title>192.168.0.22&#45;&gt;224.0.0.22</title>
<path fill="none" stroke="black" d="M1132.08,-1471.46C1194.24,-1399.72 1429.08,-1128.71 1502.13,-1044.41"/>
<polygon fill="black" stroke="black" points="1504.97,-1046.47 1508.88,-1036.62 1499.68,-1041.88 1504.97,-1046.47"/>
</g>
<!-- 192.168.0.22&#45;&gt;224.0.0.252 -->
<g id="edge84" class="edge"><title>192.168.0.22&#45;&gt;224.0.0.252</title>
<path fill="none" stroke="black" d="M1084.09,-1474.05C932.296,-1404.73 297.79,-1114.96 129.353,-1038.04"/>
<polygon fill="black" stroke="black" points="130.399,-1034.67 119.849,-1033.7 127.491,-1041.03 130.399,-1034.67"/>
</g>
<!-- 192.168.0.22&#45;&gt;255.255.255.255 -->
<g id="edge90" class="edge"><title>192.168.0.22&#45;&gt;255.255.255.255</title>
<path fill="none" stroke="black" d="M1125.18,-1470.81C1176.45,-1358.56 1449.35,-760.997 1511.39,-625.132"/>
<polygon fill="black" stroke="black" points="1514.68,-626.364 1515.65,-615.814 1508.31,-623.456 1514.68,-626.364"/>
</g>
<!-- 239.192.152.143 -->
<g id="node65" class="node"><title>239.192.152.143</title>
<ellipse fill="none" stroke="black" cx="1262.72" cy="-1573.56" rx="70.2668" ry="18"/>
<text text-anchor="middle" x="1262.72" y="-1569.86" font-family="Times,serif" font-size="14.00">239.192.152.143</text>
</g>
<!-- 192.168.0.22&#45;&gt;239.192.152.143 -->
<g id="edge86" class="edge"><title>192.168.0.22&#45;&gt;239.192.152.143</title>
<path fill="none" stroke="black" d="M1144.3,-1504.92C1167.16,-1518.17 1199.94,-1537.17 1225.22,-1551.83"/>
<polygon fill="black" stroke="black" points="1223.75,-1555.02 1234.16,-1557.01 1227.26,-1548.97 1223.75,-1555.02"/>
</g>
<!-- 192.168.0.1 -->
<g id="node29" class="node"><title>192.168.0.1</title>
<ellipse fill="none" stroke="black" cx="495.235" cy="-127.834" rx="52.9443" ry="18"/>
<text text-anchor="middle" x="495.235" y="-124.134" font-family="Times,serif" font-size="14.00">192.168.0.1</text>
</g>
<!-- 192.168.0.1&#45;&gt;239.255.255.250 -->
<g id="edge36" class="edge"><title>192.168.0.1&#45;&gt;239.255.255.250</title>
<path fill="none" stroke="black" d="M544.332,-120.775C617.725,-110.223 756.448,-90.2774 841.08,-78.1092"/>
<polygon fill="black" stroke="black" points="841.724,-81.5526 851.124,-76.665 840.728,-74.6239 841.724,-81.5526"/>
</g>
<!-- 192.168.0.1&#45;&gt;192.168.0.255 -->
<g id="edge30" class="edge"><title>192.168.0.1&#45;&gt;192.168.0.255</title>
<path fill="none" stroke="black" d="M470.325,-143.843C439.037,-163.951 385.211,-198.543 350.136,-221.084"/>
<polygon fill="black" stroke="black" points="348.168,-218.188 341.648,-226.539 351.953,-224.077 348.168,-218.188"/>
</g>
<!-- 192.168.0.1&#45;&gt;224.0.0.22 -->
<g id="edge32" class="edge"><title>192.168.0.1&#45;&gt;224.0.0.22</title>
<path fill="none" stroke="black" d="M514.867,-144.845C642.044,-255.044 1348.68,-867.345 1496.74,-995.642"/>
<polygon fill="black" stroke="black" points="1494.68,-998.49 1504.53,-1002.39 1499.26,-993.199 1494.68,-998.49"/>
</g>
<!-- 192.168.0.1&#45;&gt;224.0.0.252 -->
<g id="edge34" class="edge"><title>192.168.0.1&#45;&gt;224.0.0.252</title>
<path fill="none" stroke="black" d="M487.104,-145.64C436.268,-256.954 162.32,-856.818 100.536,-992.104"/>
<polygon fill="black" stroke="black" points="97.274,-990.823 96.3035,-1001.37 103.641,-993.731 97.274,-990.823"/>
</g>
<!-- 192.168.0.16 -->
<g id="node34" class="node"><title>192.168.0.16</title>
<ellipse fill="none" stroke="black" cx="699.571" cy="-1549.02" rx="57.2688" ry="18"/>
<text text-anchor="middle" x="699.571" y="-1545.32" font-family="Times,serif" font-size="14.00">192.168.0.16</text>
</g>
<!-- 192.168.0.16&#45;&gt;224.0.0.251 -->
<g id="edge42" class="edge"><title>192.168.0.16&#45;&gt;224.0.0.251</title>
<path fill="none" stroke="black" d="M757.482,-1549.02C785.908,-1549.02 820.212,-1549.02 849.318,-1549.02"/>
<polygon fill="black" stroke="black" points="849.378,-1552.52 859.378,-1549.02 849.378,-1545.52 849.378,-1552.52"/>
</g>
<!-- 192.168.0.16&#45;&gt;239.255.255.250 -->
<g id="edge46" class="edge"><title>192.168.0.16&#45;&gt;239.255.255.250</title>
<path fill="none" stroke="black" d="M702.187,-1530.83C724.385,-1376.43 881.042,-286.859 908.447,-96.2535"/>
<polygon fill="black" stroke="black" points="911.936,-96.5791 909.895,-86.1828 905.007,-95.5829 911.936,-96.5791"/>
</g>
<!-- 192.168.0.16&#45;&gt;192.168.0.255 -->
<g id="edge38" class="edge"><title>192.168.0.16&#45;&gt;192.168.0.255</title>
<path fill="none" stroke="black" d="M694.296,-1531.05C652.552,-1388.89 375.82,-446.425 324.322,-271.039"/>
<polygon fill="black" stroke="black" points="327.628,-269.872 321.452,-261.264 320.911,-271.845 327.628,-269.872"/>
</g>
<!-- 192.168.0.16&#45;&gt;224.0.0.22 -->
<g id="edge40" class="edge"><title>192.168.0.16&#45;&gt;224.0.0.22</title>
<path fill="none" stroke="black" d="M725.147,-1532.58C845.494,-1455.24 1355.2,-1127.67 1490.74,-1040.57"/>
<polygon fill="black" stroke="black" points="1492.96,-1043.3 1499.48,-1034.95 1489.17,-1037.41 1492.96,-1043.3"/>
</g>
<!-- 192.168.0.16&#45;&gt;224.0.0.252 -->
<g id="edge44" class="edge"><title>192.168.0.16&#45;&gt;224.0.0.252</title>
<path fill="none" stroke="black" d="M679.92,-1531.99C590.176,-1454.23 219.177,-1132.76 115.295,-1042.74"/>
<polygon fill="black" stroke="black" points="117.579,-1040.09 107.73,-1036.19 112.995,-1045.38 117.579,-1040.09"/>
</g>
<!-- 192.168.0.195 -->
<g id="node40" class="node"><title>192.168.0.195</title>
<ellipse fill="none" stroke="black" cx="1435.48" cy="-1212.94" rx="61.6163" ry="18"/>
<text text-anchor="middle" x="1435.48" y="-1209.24" font-family="Times,serif" font-size="14.00">192.168.0.195</text>
</g>
<!-- 192.168.0.195&#45;&gt;239.255.255.250 -->
<g id="edge56" class="edge"><title>192.168.0.195&#45;&gt;239.255.255.250</title>
<path fill="none" stroke="black" d="M1427.27,-1194.95C1367.32,-1063.68 997.491,-253.867 924.893,-94.8999"/>
<polygon fill="black" stroke="black" points="928.067,-93.4254 920.729,-85.7831 921.7,-96.3334 928.067,-93.4254"/>
</g>
<!-- 192.168.0.195&#45;&gt;192.168.0.255 -->
<g id="edge50" class="edge"><title>192.168.0.195&#45;&gt;192.168.0.255</title>
<path fill="none" stroke="black" d="M1415.58,-1195.69C1280.71,-1078.83 501.435,-403.581 343.858,-267.039"/>
<polygon fill="black" stroke="black" points="345.853,-264.137 336.004,-260.233 341.269,-269.427 345.853,-264.137"/>
</g>
<!-- 192.168.0.195&#45;&gt;224.0.0.22 -->
<g id="edge52" class="edge"><title>192.168.0.195&#45;&gt;224.0.0.22</title>
<path fill="none" stroke="black" d="M1443.65,-1195.06C1459.22,-1160.97 1493.24,-1086.48 1511.6,-1046.26"/>
<polygon fill="black" stroke="black" points="1514.84,-1047.61 1515.81,-1037.06 1508.47,-1044.7 1514.84,-1047.61"/>
</g>
<!-- 192.168.0.195&#45;&gt;224.0.0.252 -->
<g id="edge54" class="edge"><title>192.168.0.195&#45;&gt;224.0.0.252</title>
<path fill="none" stroke="black" d="M1380.15,-1204.98C1163.13,-1173.78 370.984,-1059.89 147.321,-1027.73"/>
<polygon fill="black" stroke="black" points="147.812,-1024.26 137.415,-1026.3 146.815,-1031.19 147.812,-1024.26"/>
</g>
<!-- 192.168.0.195&#45;&gt;192.168.0.22 -->
<g id="edge48" class="edge"><title>192.168.0.195&#45;&gt;192.168.0.22</title>
<path fill="none" stroke="black" d="M1415.55,-1230.21C1360.68,-1277.76 1207.3,-1410.66 1144.36,-1465.2"/>
<polygon fill="black" stroke="black" points="1142.06,-1462.56 1136.79,-1471.76 1146.64,-1467.85 1142.06,-1462.56"/>
</g>
<!-- 192.168.0.216 -->
<g id="node55" class="node"><title>192.168.0.216</title>
<ellipse fill="none" stroke="black" cx="495.235" cy="-1489.02" rx="61.6163" ry="18"/>
<text text-anchor="middle" x="495.235" y="-1485.32" font-family="Times,serif" font-size="14.00">192.168.0.216</text>
</g>
<!-- 192.168.0.216&#45;&gt;224.0.0.251 -->
<g id="edge76" class="edge"><title>192.168.0.216&#45;&gt;224.0.0.251</title>
<path fill="none" stroke="black" d="M550.649,-1496.99C629.316,-1508.3 772.75,-1528.92 853.401,-1540.52"/>
<polygon fill="black" stroke="black" points="852.998,-1543.99 863.395,-1541.95 853.995,-1537.07 852.998,-1543.99"/>
</g>
<!-- 192.168.0.216&#45;&gt;192.168.0.255 -->
<g id="edge74" class="edge"><title>192.168.0.216&#45;&gt;192.168.0.255</title>
<path fill="none" stroke="black" d="M492.634,-1470.93C472.729,-1332.48 344.676,-441.859 320.141,-271.214"/>
<polygon fill="black" stroke="black" points="323.595,-270.643 318.708,-261.243 316.667,-271.64 323.595,-270.643"/>
</g>
<!-- 192.168.0.224 -->
<g id="node57" class="node"><title>192.168.0.224</title>
<ellipse fill="none" stroke="black" cx="316.08" cy="-1373.88" rx="61.6163" ry="18"/>
<text text-anchor="middle" x="316.08" y="-1370.18" font-family="Times,serif" font-size="14.00">192.168.0.224</text>
</g>
<!-- 192.168.0.216&#45;&gt;192.168.0.224 -->
<g id="edge72" class="edge"><title>192.168.0.216&#45;&gt;192.168.0.224</title>
<path fill="none" stroke="black" d="M476.78,-1471.78C448.996,-1450.94 395.836,-1416.32 358.258,-1394.23"/>
<polygon fill="black" stroke="black" points="359.948,-1391.16 349.542,-1389.17 356.435,-1397.22 359.948,-1391.16"/>
</g>
<!-- 192.168.0.224&#45;&gt;192.168.0.216 -->
<g id="edge92" class="edge"><title>192.168.0.224&#45;&gt;192.168.0.216</title>
<path fill="none" stroke="black" d="M334.536,-1391.12C362.32,-1411.96 415.479,-1446.59 453.057,-1468.68"/>
<polygon fill="black" stroke="black" points="451.368,-1471.74 461.774,-1473.73 454.881,-1465.69 451.368,-1471.74"/>
</g>
<!-- 192.168.0.9 -->
<g id="node70" class="node"><title>192.168.0.9</title>
<ellipse fill="none" stroke="black" cx="176.62" cy="-1212.94" rx="52.9443" ry="18"/>
<text text-anchor="middle" x="176.62" y="-1209.24" font-family="Times,serif" font-size="14.00">192.168.0.9</text>
</g>
<!-- 192.168.0.224&#45;&gt;192.168.0.9 -->
<g id="edge94" class="edge"><title>192.168.0.224&#45;&gt;192.168.0.9</title>
<path fill="none" stroke="black" d="M300.89,-1356.35C276.16,-1327.81 227.095,-1271.19 198.573,-1238.27"/>
<polygon fill="black" stroke="black" points="200.985,-1235.71 191.792,-1230.45 195.695,-1240.3 200.985,-1235.71"/>
</g>
<!-- 192.168.0.9&#45;&gt;239.255.255.250 -->
<g id="edge132" class="edge"><title>192.168.0.9&#45;&gt;239.255.255.250</title>
<path fill="none" stroke="black" d="M188.18,-1194.95C272.624,-1063.55 794.016,-252.252 895.444,-94.4264"/>
<polygon fill="black" stroke="black" points="898.537,-96.0879 900.999,-85.7831 892.648,-92.3033 898.537,-96.0879"/>
</g>
<!-- 192.168.0.9&#45;&gt;192.168.0.255 -->
<g id="edge126" class="edge"><title>192.168.0.9&#45;&gt;192.168.0.255</title>
<path fill="none" stroke="black" d="M179.22,-1194.85C196.19,-1076.82 291.128,-416.52 312.016,-271.242"/>
<polygon fill="black" stroke="black" points="315.483,-271.716 313.442,-261.32 308.555,-270.72 315.483,-271.716"/>
</g>
<!-- 192.168.0.9&#45;&gt;224.0.0.22 -->
<g id="edge128" class="edge"><title>192.168.0.9&#45;&gt;224.0.0.22</title>
<path fill="none" stroke="black" d="M225.769,-1205.87C434.713,-1175.83 1248.57,-1058.82 1468.76,-1027.16"/>
<polygon fill="black" stroke="black" points="1469.39,-1030.6 1478.79,-1025.71 1468.4,-1023.67 1469.39,-1030.6"/>
</g>
<!-- 192.168.0.9&#45;&gt;224.0.0.252 -->
<g id="edge130" class="edge"><title>192.168.0.9&#45;&gt;224.0.0.252</title>
<path fill="none" stroke="black" d="M168.456,-1195.06C152.886,-1160.97 118.869,-1086.48 100.502,-1046.26"/>
<polygon fill="black" stroke="black" points="103.635,-1044.7 96.297,-1037.06 97.2675,-1047.61 103.635,-1044.7"/>
</g>
<!-- 192.168.0.227 -->
<g id="node71" class="node"><title>192.168.0.227</title>
<ellipse fill="none" stroke="black" cx="1076.59" cy="-1657.41" rx="61.6163" ry="18"/>
<text text-anchor="middle" x="1076.59" y="-1653.71" font-family="Times,serif" font-size="14.00">192.168.0.227</text>
</g>
<!-- 192.168.0.227&#45;&gt;192.168.0.22 -->
<g id="edge96" class="edge"><title>192.168.0.227&#45;&gt;192.168.0.22</title>
<path fill="none" stroke="black" d="M1080.9,-1639.39C1087.91,-1610.1 1101.82,-1551.93 1110.14,-1517.15"/>
<polygon fill="black" stroke="black" points="1113.61,-1517.71 1112.53,-1507.17 1106.8,-1516.08 1113.61,-1517.71"/>
</g>
<!-- 192.168.0.235 -->
<g id="node73" class="node"><title>192.168.0.235</title>
<ellipse fill="none" stroke="black" cx="64.107" cy="-1285.25" rx="61.6163" ry="18"/>
<text text-anchor="middle" x="64.107" y="-1281.55" font-family="Times,serif" font-size="14.00">192.168.0.235</text>
</g>
<!-- 192.168.0.235&#45;&gt;192.168.0.9 -->
<g id="edge98" class="edge"><title>192.168.0.235&#45;&gt;192.168.0.9</title>
<path fill="none" stroke="black" d="M89.638,-1268.84C105.429,-1258.69 125.878,-1245.55 142.981,-1234.56"/>
<polygon fill="black" stroke="black" points="145.057,-1237.38 151.578,-1229.03 141.273,-1231.49 145.057,-1237.38"/>
</g>
<!-- 192.168.0.245 -->
<g id="node75" class="node"><title>192.168.0.245</title>
<ellipse fill="none" stroke="black" cx="1296.02" cy="-1373.88" rx="61.6163" ry="18"/>
<text text-anchor="middle" x="1296.02" y="-1370.18" font-family="Times,serif" font-size="14.00">192.168.0.245</text>
</g>
<!-- 192.168.0.245&#45;&gt;192.168.0.20 -->
<g id="edge102" class="edge"><title>192.168.0.245&#45;&gt;192.168.0.20</title>
<path fill="none" stroke="black" d="M1298.62,-1355.8C1315.59,-1237.77 1410.53,-577.466 1431.42,-432.188"/>
<polygon fill="black" stroke="black" points="1434.89,-432.662 1432.85,-422.266 1427.96,-431.666 1434.89,-432.662"/>
</g>
<!-- 192.168.0.245&#45;&gt;192.168.0.22 -->
<g id="edge104" class="edge"><title>192.168.0.245&#45;&gt;192.168.0.22</title>
<path fill="none" stroke="black" d="M1270.35,-1390.38C1238.87,-1410.62 1185.4,-1444.98 1150.62,-1467.33"/>
<polygon fill="black" stroke="black" points="1148.72,-1464.39 1142.2,-1472.74 1152.5,-1470.28 1148.72,-1464.39"/>
</g>
<!-- 192.168.0.245&#45;&gt;192.168.0.195 -->
<g id="edge100" class="edge"><title>192.168.0.245&#45;&gt;192.168.0.195</title>
<path fill="none" stroke="black" d="M1311.21,-1356.35C1335.94,-1327.81 1385.01,-1271.19 1413.53,-1238.27"/>
<polygon fill="black" stroke="black" points="1416.41,-1240.3 1420.31,-1230.45 1411.12,-1235.71 1416.41,-1240.3"/>
</g>
<!-- 192.168.0.247 -->
<g id="node79" class="node"><title>192.168.0.247</title>
<ellipse fill="none" stroke="black" cx="88.1525" cy="-597.633" rx="61.6163" ry="18"/>
<text text-anchor="middle" x="88.1525" y="-593.933" font-family="Times,serif" font-size="14.00">192.168.0.247</text>
</g>
<!-- 192.168.0.247&#45;&gt;192.168.0.255 -->
<g id="edge106" class="edge"><title>192.168.0.247&#45;&gt;192.168.0.255</title>
<path fill="none" stroke="black" d="M99.7688,-579.558C137.188,-521.332 254.709,-338.466 298.981,-269.577"/>
<polygon fill="black" stroke="black" points="302.025,-271.314 304.488,-261.009 296.137,-267.529 302.025,-271.314"/>
</g>
<!-- 192.168.0.247&#45;&gt;224.0.0.252 -->
<g id="edge108" class="edge"><title>192.168.0.247&#45;&gt;224.0.0.252</title>
<path fill="none" stroke="black" d="M88.1525,-615.748C88.1525,-681.829 88.1525,-910.253 88.1525,-990.819"/>
<polygon fill="black" stroke="black" points="84.6526,-991.174 88.1525,-1001.17 91.6526,-991.174 84.6526,-991.174"/>
</g>
<!-- 192.168.0.88 -->
<g id="node88" class="node"><title>192.168.0.88</title>
<ellipse fill="none" stroke="black" cx="57.8449" cy="-808.427" rx="57.2688" ry="18"/>
<text text-anchor="middle" x="57.8449" y="-804.727" font-family="Times,serif" font-size="14.00">192.168.0.88</text>
</g>
<!-- 192.168.0.88&#45;&gt;192.168.0.255 -->
<g id="edge122" class="edge"><title>192.168.0.88&#45;&gt;192.168.0.255</title>
<path fill="none" stroke="black" d="M65.9999,-790.57C103.381,-708.716 258.463,-369.135 303.664,-270.157"/>
<polygon fill="black" stroke="black" points="306.953,-271.382 307.924,-260.831 300.586,-268.474 306.953,-271.382"/>
</g>
<!-- 192.168.0.88&#45;&gt;224.0.0.252 -->
<g id="edge124" class="edge"><title>192.168.0.88&#45;&gt;224.0.0.252</title>
<path fill="none" stroke="black" d="M60.4815,-826.765C65.79,-863.687 77.7971,-947.198 84.1062,-991.078"/>
<polygon fill="black" stroke="black" points="80.656,-991.676 85.5436,-1001.08 87.5847,-990.68 80.656,-991.676"/>
</g>
<!-- 192.168.137.1 -->
<g id="node95" class="node"><title>192.168.137.1</title>
<ellipse fill="none" stroke="black" cx="1554.26" cy="-808.427" rx="61.6163" ry="18"/>
<text text-anchor="middle" x="1554.26" y="-804.727" font-family="Times,serif" font-size="14.00">192.168.137.1</text>
</g>
<!-- 192.168.137.1&#45;&gt;239.255.255.250 -->
<g id="edge140" class="edge"><title>192.168.137.1&#45;&gt;239.255.255.250</title>
<path fill="none" stroke="black" d="M1539.03,-790.851C1453.77,-692.452 1035.84,-210.145 934.636,-93.3442"/>
<polygon fill="black" stroke="black" points="937.099,-90.842 927.905,-85.5765 931.809,-95.426 937.099,-90.842"/>
</g>
<!-- 192.168.137.1&#45;&gt;224.0.0.22 -->
<g id="edge136" class="edge"><title>192.168.137.1&#45;&gt;224.0.0.22</title>
<path fill="none" stroke="black" d="M1551.62,-826.765C1546.31,-863.687 1534.31,-947.198 1528,-991.078"/>
<polygon fill="black" stroke="black" points="1524.52,-990.68 1526.56,-1001.08 1531.45,-991.676 1524.52,-990.68"/>
</g>
<!-- 192.168.137.1&#45;&gt;224.0.0.252 -->
<g id="edge138" class="edge"><title>192.168.137.1&#45;&gt;224.0.0.252</title>
<path fill="none" stroke="black" d="M1499.02,-816.369C1268.58,-849.502 384.822,-976.567 147.245,-1010.73"/>
<polygon fill="black" stroke="black" points="146.483,-1007.3 137.083,-1012.19 147.479,-1014.23 146.483,-1007.3"/>
</g>
<!-- 192.168.137.1&#45;&gt;255.255.255.255 -->
<g id="edge142" class="edge"><title>192.168.137.1&#45;&gt;255.255.255.255</title>
<path fill="none" stroke="black" d="M1551.62,-790.089C1546.31,-753.167 1534.31,-669.657 1528,-625.776"/>
<polygon fill="black" stroke="black" points="1531.45,-625.178 1526.56,-615.778 1524.52,-626.175 1531.45,-625.178"/>
</g>
<!-- 192.168.137.255 -->
<g id="node97" class="node"><title>192.168.137.255</title>
<ellipse fill="none" stroke="black" cx="1697.1" cy="-808.427" rx="70.2668" ry="18"/>
<text text-anchor="middle" x="1697.1" y="-804.727" font-family="Times,serif" font-size="14.00">192.168.137.255</text>
</g>
<!-- 192.168.137.1&#45;&gt;192.168.137.255 -->
<g id="edge134" class="edge"><title>192.168.137.1&#45;&gt;192.168.137.255</title>
<path fill="none" stroke="black" d="M1615.67,-808.427C1615.78,-808.427 1615.88,-808.427 1615.99,-808.427"/>
<polygon fill="black" stroke="black" points="1616.16,-811.927 1626.16,-808.427 1616.16,-804.927 1616.16,-811.927"/>
</g>
</g>
</svg>
