<?xml version="1.0" encoding="UTF-8" standalone="no"?>
<!DOCTYPE svg PUBLIC "-//W3C//DTD SVG 1.1//EN"
 "http://www.w3.org/Graphics/SVG/1.1/DTD/svg11.dtd">
<!-- Generated by graphviz version 2.28.0 (20111211.2114)
 -->
<!-- Title: my_first_graph Pages: 1 -->
<svg width="200pt" height="220pt"
 viewBox="0.00 0.00 200.00 220.00" xmlns="http://www.w3.org/2000/svg" xmlns:xlink="http://www.w3.org/1999/xlink">
<g id="graph1" class="graph" transform="scale(1 1) rotate(0) translate(4 216)">
<title>my_first_graph</title>
<polygon fill="white" stroke="white" points="-4,5 -4,-216 197,-216 197,5 -4,5"/>
<!-- A -->
<g id="node1" class="node"><title>A</title>
<ellipse fill="none" stroke="black" cx="110" cy="-194" rx="38.0212" ry="18"/>
<text text-anchor="middle" x="110" y="-190.3" font-family="Times,serif" font-size="14.00">Node A</text>
</g>
<!-- B -->
<g id="node3" class="node"><title>B</title>
<ellipse fill="none" stroke="black" cx="27" cy="-106" rx="27" ry="18"/>
<text text-anchor="middle" x="27" y="-102.3" font-family="Times,serif" font-size="14.00">B</text>
</g>
<!-- A&#45;&gt;B -->
<g id="edge2" class="edge"><title>A&#45;&gt;B</title>
<path fill="none" stroke="black" d="M74.2552,-187.337C56.894,-182.591 37.5492,-173.897 27,-158 22.3874,-151.049 21.17,-142.306 21.4735,-134.032"/>
<polygon fill="black" stroke="black" points="24.9663,-134.284 22.5303,-123.973 18.0046,-133.552 24.9663,-134.284"/>
<text text-anchor="middle" x="61.5" y="-146.3" font-family="Times,serif" font-size="14.00">Edge A to B</text>
</g>
<!-- C -->
<g id="node5" class="node"><title>C</title>
<ellipse fill="none" stroke="black" cx="68" cy="-18" rx="27" ry="18"/>
<text text-anchor="middle" x="68" y="-14.3" font-family="Times,serif" font-size="14.00">C</text>
</g>
<!-- A&#45;&gt;C -->
<g id="edge7" class="edge"><title>A&#45;&gt;C</title>
<path fill="none" stroke="black" d="M111.303,-176.004C112.72,-149.049 112.866,-95.3176 96,-54 94.2318,-49.6683 91.7496,-45.4407 88.9865,-41.5073"/>
<polygon fill="black" stroke="black" points="91.5831,-39.1467 82.6566,-33.4399 86.076,-43.4678 91.5831,-39.1467"/>
</g>
<!-- D -->
<g id="node8" class="node"><title>D</title>
<ellipse fill="none" stroke="black" cx="165" cy="-106" rx="27" ry="18"/>
<text text-anchor="middle" x="165" y="-102.3" font-family="Times,serif" font-size="14.00">D</text>
</g>
<!-- A&#45;&gt;D -->
<g id="edge8" class="edge"><title>A&#45;&gt;D</title>
<path fill="none" stroke="black" d="M120.605,-176.418C128.773,-163.645 140.189,-145.795 149.399,-131.394"/>
<polygon fill="black" stroke="black" points="152.361,-133.259 154.8,-122.949 146.464,-129.488 152.361,-133.259"/>
</g>
<!-- B&#45;&gt;C -->
<g id="edge4" class="edge"><title>B&#45;&gt;C</title>
<path fill="none" stroke="black" d="M23.9565,-87.6824C22.9583,-77.4251 23.1403,-64.4366 28,-54 30.9311,-47.7052 35.5952,-42.087 40.7202,-37.2914"/>
<polygon fill="black" stroke="black" points="42.9772,-39.9665 48.4106,-30.871 38.491,-34.593 42.9772,-39.9665"/>
<text text-anchor="middle" x="62" y="-58.3" font-family="Times,serif" font-size="14.00">Edge B to C</text>
</g>
</g>
</svg>
