<?xml version="1.0" encoding="UTF-8" standalone="no"?>
<!DOCTYPE svg PUBLIC "-//W3C//DTD SVG 1.1//EN"
 "http://www.w3.org/Graphics/SVG/1.1/DTD/svg11.dtd">
<!-- Generated by graphviz version 2.28.0 (20111211.2114)
 -->
<!-- Title: tcpdump_graph Pages: 1 -->
<svg width="385pt" height="448pt"
 viewBox="0.00 0.00 384.68 447.79" xmlns="http://www.w3.org/2000/svg" xmlns:xlink="http://www.w3.org/1999/xlink">
<g id="graph1" class="graph" transform="scale(1 1) rotate(0) translate(4 443.786)">
<title>tcpdump_graph</title>
<polygon fill="white" stroke="white" points="-4,5 -4,-443.786 381.677,-443.786 381.677,5 -4,5"/>
<!-- 224.0.0.252 -->
<g id="node1" class="node"><title>224.0.0.252</title>
<ellipse fill="yellow" stroke="yellow" cx="184.412" cy="-262.324" rx="52.9443" ry="18"/>
<text text-anchor="middle" x="184.412" y="-258.624" font-family="Times,serif" font-size="14.00">224.0.0.252</text>
</g>
<!-- 224.0.0.22 -->
<g id="node2" class="node"><title>224.0.0.22</title>
<ellipse fill="yellow" stroke="yellow" cx="230.187" cy="-164.077" rx="48.6179" ry="18"/>
<text text-anchor="middle" x="230.187" y="-160.377" font-family="Times,serif" font-size="14.00">224.0.0.22</text>
</g>
<!-- 192.168.0.100 -->
<g id="node3" class="node"><title>192.168.0.100</title>
<ellipse fill="none" stroke="black" cx="61.3723" cy="-258.288" rx="61.6163" ry="18"/>
<text text-anchor="middle" x="61.3723" y="-254.588" font-family="Times,serif" font-size="14.00">192.168.0.100</text>
</g>
<!-- 192.168.0.100&#45;&gt;224.0.0.252 -->
<g id="edge6" class="edge"><title>192.168.0.100&#45;&gt;224.0.0.252</title>
<path fill="none" stroke="blue" d="M122.892,-260.306C122.979,-260.309 123.065,-260.311 123.151,-260.314"/>
<polygon fill="blue" stroke="blue" points="121.051,-263.747 131.161,-260.577 121.281,-256.751 121.051,-263.747"/>
</g>
<!-- 192.168.0.100&#45;&gt;224.0.0.22 -->
<g id="edge4" class="edge"><title>192.168.0.100&#45;&gt;224.0.0.22</title>
<path fill="none" stroke="blue" d="M90.0093,-242.306C118.777,-226.252 163.188,-201.467 194.293,-184.109"/>
<polygon fill="blue" stroke="blue" points="196.06,-187.13 203.087,-179.201 192.649,-181.018 196.06,-187.13"/>
</g>
<!-- 192.168.0.255 -->
<g id="node5" class="node"><title>192.168.0.255</title>
<ellipse fill="none" stroke="black" cx="65.9085" cy="-421.786" rx="61.6163" ry="18"/>
<text text-anchor="middle" x="65.9085" y="-418.086" font-family="Times,serif" font-size="14.00">192.168.0.255</text>
</g>
<!-- 192.168.0.100&#45;&gt;192.168.0.255 -->
<g id="edge2" class="edge"><title>192.168.0.100&#45;&gt;192.168.0.255</title>
<path fill="none" stroke="blue" d="M61.875,-276.409C62.6619,-304.768 64.1904,-359.861 65.1232,-393.483"/>
<polygon fill="blue" stroke="blue" points="61.6274,-393.684 65.4035,-403.583 68.6247,-393.49 61.6274,-393.684"/>
</g>
<!-- 192.168.0.10 -->
<g id="node8" class="node"><title>192.168.0.10</title>
<ellipse fill="none" stroke="black" cx="220.871" cy="-409.436" rx="57.2688" ry="18"/>
<text text-anchor="middle" x="220.871" y="-405.736" font-family="Times,serif" font-size="14.00">192.168.0.10</text>
</g>
<!-- 192.168.0.10&#45;&gt;224.0.0.252 -->
<g id="edge12" class="edge"><title>192.168.0.10&#45;&gt;224.0.0.252</title>
<path fill="none" stroke="blue" d="M216.4,-391.397C210.141,-366.14 198.707,-320.005 191.34,-290.279"/>
<polygon fill="blue" stroke="blue" points="194.722,-289.375 188.919,-280.51 187.928,-291.059 194.722,-289.375"/>
</g>
<!-- 192.168.0.10&#45;&gt;192.168.0.255 -->
<g id="edge10" class="edge"><title>192.168.0.10&#45;&gt;192.168.0.255</title>
<path fill="none" stroke="blue" d="M164.926,-413.894C155.339,-414.659 145.274,-415.461 135.385,-416.249"/>
<polygon fill="blue" stroke="blue" points="134.86,-412.779 125.17,-417.063 135.417,-419.757 134.86,-412.779"/>
</g>
<!-- 192.168.0.22 -->
<g id="node10" class="node"><title>192.168.0.22</title>
<ellipse fill="none" stroke="black" cx="319.255" cy="-293.743" rx="57.2688" ry="18"/>
<text text-anchor="middle" x="319.255" y="-290.043" font-family="Times,serif" font-size="14.00">192.168.0.22</text>
</g>
<!-- 192.168.0.10&#45;&gt;192.168.0.22 -->
<g id="edge8" class="edge"><title>192.168.0.10&#45;&gt;192.168.0.22</title>
<path fill="none" stroke="blue" d="M235.813,-391.864C252.282,-372.498 278.919,-341.175 297.659,-319.139"/>
<polygon fill="blue" stroke="blue" points="300.36,-321.365 304.172,-311.48 295.027,-316.83 300.36,-321.365"/>
</g>
<!-- 192.168.0.22&#45;&gt;224.0.0.252 -->
<g id="edge22" class="edge"><title>192.168.0.22&#45;&gt;224.0.0.252</title>
<path fill="none" stroke="blue" d="M272.85,-282.931C261.772,-280.349 249.854,-277.572 238.466,-274.919"/>
<polygon fill="blue" stroke="blue" points="239.162,-271.487 228.629,-272.627 237.574,-278.305 239.162,-271.487"/>
</g>
<!-- 192.168.0.22&#45;&gt;224.0.0.22 -->
<g id="edge20" class="edge"><title>192.168.0.22&#45;&gt;224.0.0.22</title>
<path fill="none" stroke="blue" d="M307.057,-275.986C291.8,-253.774 265.555,-215.567 248.037,-190.064"/>
<polygon fill="blue" stroke="blue" points="250.784,-187.882 242.237,-181.621 245.014,-191.845 250.784,-187.882"/>
</g>
<!-- 192.168.0.20 -->
<g id="node13" class="node"><title>192.168.0.20</title>
<ellipse fill="none" stroke="black" cx="141.475" cy="-86.0478" rx="57.2688" ry="18"/>
<text text-anchor="middle" x="141.475" y="-82.3478" font-family="Times,serif" font-size="14.00">192.168.0.20</text>
</g>
<!-- 192.168.0.20&#45;&gt;224.0.0.252 -->
<g id="edge18" class="edge"><title>192.168.0.20&#45;&gt;224.0.0.252</title>
<path fill="none" stroke="blue" d="M145.908,-104.249C153.416,-135.072 168.682,-197.747 177.571,-234.237"/>
<polygon fill="blue" stroke="blue" points="174.236,-235.335 180.003,-244.222 181.037,-233.678 174.236,-235.335"/>
</g>
<!-- 192.168.0.20&#45;&gt;224.0.0.22 -->
<g id="edge16" class="edge"><title>192.168.0.20&#45;&gt;224.0.0.22</title>
<path fill="none" stroke="blue" d="M161.163,-103.365C173.622,-114.325 189.89,-128.633 203.503,-140.607"/>
<polygon fill="blue" stroke="blue" points="201.342,-143.368 211.162,-147.344 205.965,-138.112 201.342,-143.368"/>
</g>
<!-- 192.168.0.57 -->
<g id="node15" class="node"><title>192.168.0.57</title>
<ellipse fill="none" stroke="black" cx="262.812" cy="-18" rx="57.2688" ry="18"/>
<text text-anchor="middle" x="262.812" y="-14.3" font-family="Times,serif" font-size="14.00">192.168.0.57</text>
</g>
<!-- 192.168.0.20&#45;&gt;192.168.0.57 -->
<g id="edge14" class="edge"><title>192.168.0.20&#45;&gt;192.168.0.57</title>
<path fill="none" stroke="blue" d="M169.617,-70.2652C186.19,-60.9706 207.362,-49.0975 225.336,-39.0174"/>
<polygon fill="blue" stroke="blue" points="227.392,-41.8769 234.402,-33.9327 223.968,-35.7715 227.392,-41.8769"/>
</g>
<!-- 192.168.0.57&#45;&gt;224.0.0.22 -->
<g id="edge24" class="edge"><title>192.168.0.57&#45;&gt;224.0.0.22</title>
<path fill="none" stroke="blue" d="M258.746,-36.2055C253.148,-61.2723 243.014,-106.645 236.445,-136.056"/>
<polygon fill="blue" stroke="blue" points="232.965,-135.579 234.201,-146.101 239.797,-137.105 232.965,-135.579"/>
</g>
</g>
</svg>
